#!OML:ASF I:\Actors\actors\Patient Classification 2\Patient 1\Session 1\actor1.ASF
:FULLY-SPECIFIED
:DEGREES
864
root -0.691058 18.7187 5.3905 0.0611156 3.62704 -1.80484
lowerback 12.0569 -0.73252 14.0633
upperback 2.09339 1.13619 5.7763
thorax -4.40488 0.398798 -1.90837
lowerneck -5.00788 -12.7138 -9.97653
upperneck 16.7465 -18.6067 12.6793
head 8.14333 -8.57651 3.89853
rclavicle -1.19271e-015 5.40694e-014
rhumerus -3.24095 -4.07596 -63.9449
rradius 62.7298
rwrist -15.5172
rhand -1.07905 -36.543
rfingers 7.12502
rthumb 24.5564 -424.988
lclavicle -1.19271e-015 5.40694e-014
lhumerus -38.2918 -15.9161 102.19
lradius 72.5629
lwrist 18.5052
lhand -5.25055 -28.5751
lfingers 7.12502
lthumb 20.5527 0.356891
rfemur 0 0 0
rtibia 0
rfoot 0 0
rtoes 0
lfemur -7.30225 -0.100716 -11.7959
ltibia 23.6997
lfoot -17.5462 5.57833
ltoes -56.9611
865
root -0.688844 18.719 5.39266 0.0622523 3.64176 -1.76742
lowerback 11.9944 -0.727903 14.0131
upperback 2.07989 1.12515 5.77076
thorax -4.38713 0.394611 -1.88537
lowerneck -4.90154 -12.706 -10.0613
upperneck 16.6048 -18.6042 12.8233
head 8.10035 -8.57947 3.96564
rclavicle -1.90833e-014 -1.30403e-013
rhumerus -3.6925 -4.2488 -64.0659
rradius 61.8866
rwrist -15.3811
rhand -1.22929 -36.938
rfingers 7.12502
rthumb 24.4124 -425.403
lclavicle -1.90833e-014 -1.30403e-013
lhumerus -38.2699 -15.8694 102.157
lradius 72.5181
lwrist 18.2199
lhand -5.20058 -28.5483
lfingers 7.12502
lthumb 20.6007 0.378521
rfemur 0 0 0
rtibia 0
rfoot 0 0
rtoes 0
lfemur -7.28809 -0.132281 -11.8499
ltibia 23.688
lfoot -17.5787 5.6153
ltoes -57.0245
866
root -0.687733 18.7194 5.39471 0.0503834 3.64695 -1.75993
lowerback 11.9811 -0.717269 13.9857
upperback 2.0628 1.13501 5.76569
thorax -4.39744 0.398599 -1.87741
lowerneck -4.91149 -12.7054 -10.0978
upperneck 16.5929 -18.6045 12.8565
head 8.10525 -8.57932 3.9808
rclavicle -1.03368e-014 -3.81667e-014
rhumerus -4.18749 -4.49158 -64.2049
rradius 61.1177
rwrist -15.1159
rhand -1.55829 -37.2206
rfingers 7.12502
rthumb 24.097 -425.727
lclavicle -1.03368e-014 -3.81667e-014
lhumerus -38.256 -15.8266 102.149
lradius 72.4777
lwrist 18.0808
lhand -5.14281 -28.536
lfingers 7.12502
lthumb 20.6562 0.384774
rfemur 0 0 0
rtibia 0
rfoot 0 0
rtoes 0
lfemur -7.26414 -0.149524 -11.8625
ltibia 23.6824
lfoot -17.592 5.62318
ltoes -57.0243
867
root -0.686917 18.7186 5.3986 0.0258445 3.64693 -1.75603
lowerback 11.983 -0.697431 13.9538
upperback 2.03186 1.16082 5.75485
thorax -4.42902 0.408707 -1.87558
lowerneck -4.96665 -12.705 -10.1314
upperneck 16.5566 -18.6069 12.9253
head 8.11389 -8.5761 4.00388
rclavicle 1.27222e-014 -6.67916e-014
rhumerus -4.72604 -4.82129 -64.3523
rradius 60.37
rwrist -14.5732
rhand -1.81576 -37.4085
rfingers 7.12502
rthumb 23.8501 -425.948
lclavicle 1.27222e-014 -6.67916e-014
lhumerus -38.293 -15.8096 102.177
lradius 72.4398
lwrist 18.064
lhand -5.03497 -28.5673
lfingers 7.12502
lthumb 20.7598 0.342255
rfemur 0 0 0
rtibia 0
rfoot 0 0
rtoes 0
lfemur -7.2231 -0.182476 -11.8713
ltibia 23.687
lfoot -17.5846 5.64019
ltoes -57.0029
868
root -0.685918 18.7176 5.40394 0.00599183 3.65269 -1.77094
lowerback 11.9378 -0.687704 13.9183
upperback 1.99751 1.16445 5.74796
thorax -4.44123 0.409055 -1.86404
lowerneck -4.98138 -12.7017 -10.1749
upperneck 16.5274 -18.6076 12.9922
head 8.1182 -8.57457 4.0307
rclavicle 1.47101e-014 3.18055e-014
rhumerus -5.23607 -5.13612 -64.4858
rradius 59.6076
rwrist -14.0451
rhand -1.75616 -37.6375
rfingers 7.12502
rthumb 23.9072 -426.169
lclavicle 1.47101e-014 3.18055e-014
lhumerus -38.3512 -15.7744 102.191
lradius 72.4072
lwrist 18.07
lhand -4.86459 -28.5748
lfingers 7.12502
lthumb 20.9235 0.316717
rfemur 0 0 0
rtibia 0
rfoot 0 0
rtoes 0
lfemur -7.18662 -0.217575 -11.8614
ltibia 23.6964
lfoot -17.5997 5.65645
ltoes -57.0088
869
root -0.684853 18.7169 5.40968 -0.00242892 3.65314 -1.82396
lowerback 11.858 -0.669268 13.9055
upperback 1.96852 1.17522 5.74566
thorax -4.42697 0.414224 -1.86084
lowerneck -4.96055 -12.6962 -10.1985
upperneck 16.4757 -18.6057 13.0568
head 8.10619 -8.5733 4.05693
rclavicle 1.19271e-015 -1.59028e-014
rhumerus -5.73233 -5.48111 -64.5867
rradius 58.8744
rwrist -13.802
rhand -1.68135 -38.0078
rfingers 7.12502
rthumb 23.979 -426.53
lclavicle 1.19271e-015 -1.59028e-014
lhumerus -38.4058 -15.8174 102.222
lradius 72.3961
lwrist 18.2384
lhand -4.84733 -28.5027
lfingers 7.12502
lthumb 20.9401 0.386984
rfemur 0 0 0
rtibia 0
rfoot 0 0
rtoes 0
lfemur -7.16588 -0.221735 -11.8075
ltibia 23.7076
lfoot -17.6147 5.66616
ltoes -57.0231
870
root -0.683706 18.7162 5.4149 -0.0217399 3.63651 -1.86067
lowerback 11.8311 -0.635042 13.8923
upperback 1.93895 1.21552 5.7171
thorax -4.43815 0.432166 -1.89011
lowerneck -4.86878 -12.6943 -10.2257
upperneck 16.3224 -18.613 13.1905
head 8.05656 -8.57841 4.11014
rclavicle -5.56597e-015 1.90833e-014
rhumerus -6.25574 -5.8944 -64.6562
rradius 58.1963
rwrist -13.5679
rhand -1.62658 -38.4677
rfingers 7.12502
rthumb 24.0315 -426.983
lclavicle -5.56597e-015 1.90833e-014
lhumerus -38.4742 -15.9573 102.266
lradius 72.4056
lwrist 18.5111
lhand -5.02501 -28.4397
lfingers 7.12502
lthumb 20.7694 0.468816
rfemur 0 0 0
rtibia 0
rfoot 0 0
rtoes 0
lfemur -7.1276 -0.239555 -11.7733
ltibia 23.7188
lfoot -17.6444 5.7035
ltoes -57.0445
871
root -0.683322 18.7149 5.42037 -0.0464174 3.6314 -1.86005
lowerback 11.8035 -0.615777 13.8361
upperback 1.92442 1.22797 5.6744
thorax -4.43698 0.438319 -1.9071
lowerneck -4.8195 -12.6862 -10.3075
upperneck 16.1709 -18.6151 13.3827
head 8.02608 -8.578 4.18779
rclavicle 0 1.90833e-014
rhumerus -6.73953 -6.25585 -64.728
rradius 57.5248
rwrist -13.1895
rhand -1.50282 -38.8227
rfingers 7.12502
rthumb 24.1502 -427.322
lclavicle 0 1.90833e-014
lhumerus -38.5055 -16.016 102.25
lradius 72.3978
lwrist 18.5244
lhand -5.10188 -28.428
lfingers 7.12502
lthumb 20.6955 0.488586
rfemur 0 0 0
rtibia 0
rfoot 0 0
rtoes 0
lfemur -7.07781 -0.292456 -11.7814
ltibia 23.7261
lfoot -17.7091 5.74557
ltoes -57.0899
872
root -0.683115 18.7141 5.42842 -0.061818 3.64331 -1.84667
lowerback 11.708 -0.611056 13.7369
upperback 1.92608 1.20168 5.64509
thorax -4.38682 0.429598 -1.88069
lowerneck -4.91754 -12.6819 -10.3992
upperneck 16.1623 -18.6158 13.4947
head 8.0617 -8.57142 4.23023
rclavicle -1.82882e-014 -3.49861e-014
rhumerus -7.19227 -6.55708 -64.8132
rradius 56.8585
rwrist -12.756
rhand -1.46499 -38.9975
rfingers 7.12502
rthumb 24.1865 -427.492
lclavicle -1.82882e-014 -3.49861e-014
lhumerus -38.51 -15.9448 102.197
lradius 72.3824
lwrist 18.279
lhand -5.02698 -28.3809
lfingers 7.12502
lthumb 20.7675 0.527808
rfemur 0 0 0
rtibia 0
rfoot 0 0
rtoes 0
lfemur -7.02913 -0.345221 -11.8031
ltibia 23.7314
lfoot -17.7659 5.75944
ltoes -57.0917
873
root -0.681378 18.7141 5.43703 -0.0607259 3.65292 -1.83192
lowerback 11.6069 -0.60435 13.6531
upperback 1.91148 1.18085 5.61101
thorax -4.34983 0.421945 -1.86829
lowerneck -5.10574 -12.6782 -10.4241
upperneck 16.2772 -18.6051 13.4566
head 8.13051 -8.55805 4.20949
rclavicle 1.43125e-014 -1.90833e-014
rhumerus -7.6934 -6.89845 -64.9133
rradius 56.2417
rwrist -12.2765
rhand -1.55413 -39.2876
rfingers 7.12502
rthumb 24.101 -427.794
lclavicle 1.43125e-014 -1.90833e-014
lhumerus -38.6285 -15.9242 102.185
lradius 72.4593
lwrist 18.2901
lhand -5.0631 -28.3661
lfingers 7.12502
lthumb 20.7328 0.546345
rfemur 0 0 0
rtibia 0
rfoot 0 0
rtoes 0
lfemur -6.99815 -0.399791 -11.8302
ltibia 23.7432
lfoot -17.8017 5.77998
ltoes -57.0598
874
root -0.679779 18.7144 5.44306 -0.034916 3.63921 -1.84551
lowerback 11.5406 -0.586122 13.5886
upperback 1.87459 1.18723 5.57899
thorax -4.3525 0.424303 -1.86815
lowerneck -5.26984 -12.6546 -10.4123
upperneck 16.3866 -18.5655 13.3916
head 8.18303 -8.5324 4.18078
rclavicle 9.93923e-015 3.49861e-014
rhumerus -8.1915 -7.30156 -65.0469
rradius 55.6372
rwrist -11.8569
rhand -1.71188 -39.7228
rfingers 7.12502
rthumb 23.9497 -428.249
lclavicle 9.93923e-015 3.49861e-014
lhumerus -38.8271 -15.9319 102.189
lradius 72.5899
lwrist 18.4542
lhand -5.13729 -28.3847
lfingers 7.12502
lthumb 20.6615 0.535564
rfemur 0 0 0
rtibia 0
rfoot 0 0
rtoes 0
lfemur -7.0122 -0.447233 -11.8233
ltibia 23.7591
lfoot -17.8316 5.8345
ltoes -57.0682
875
root -0.67974 18.7141 5.44832 -0.00542832 3.62254 -1.88326
lowerback 11.4899 -0.555376 13.509
upperback 1.82736 1.21302 5.55687
thorax -4.37306 0.43511 -1.85216
lowerneck -5.29447 -12.6237 -10.4988
upperneck 16.3496 -18.5333 13.5202
head 8.19292 -8.51333 4.23808
rclavicle -1.19271e-015 -4.45278e-014
rhumerus -8.6787 -7.67892 -65.1594
rradius 55.0379
rwrist -11.6908
rhand -1.92785 -40.2026
rfingers 7.12502
rthumb 23.7426 -428.756
lclavicle -1.19271e-015 -4.45278e-014
lhumerus -38.9317 -15.8434 102.178
lradius 72.5957
lwrist 18.3496
lhand -4.97139 -28.3509
lfingers 7.12502
lthumb 20.8209 0.551975
rfemur 0 0 0
rtibia 0
rfoot 0 0
rtoes 0
lfemur -7.04423 -0.412029 -11.7773
ltibia 23.7752
lfoot -17.8322 5.82969
ltoes -57.0972
876
root -0.679877 18.7133 5.45524 -0.00810941 3.63962 -1.91444
lowerback 11.4312 -0.536761 13.4466
upperback 1.79135 1.22108 5.51236
thorax -4.3784 0.438146 -1.86659
lowerneck -5.20806 -12.5863 -10.6674
upperneck 16.1724 -18.5059 13.8194
head 8.16298 -8.49894 4.37016
rclavicle 5.1684e-015 4.13472e-014
rhumerus -9.19164 -8.07895 -65.272
rradius 54.4676
rwrist -11.5384
rhand -2.1569 -40.6763
rfingers 7.12502
rthumb 23.5229 -429.258
lclavicle 5.1684e-015 4.13472e-014
lhumerus -38.9606 -15.7933 102.169
lradius 72.5232
lwrist 18.3695
lhand -4.74911 -28.2665
lfingers 7.12502
lthumb 21.0345 0.61272
rfemur 0 0 0
rtibia 0
rfoot 0 0
rtoes 0
lfemur -7.03505 -0.389052 -11.7395
ltibia 23.7924
lfoot -17.8397 5.78241
ltoes -57.0436
877
root -0.679863 18.7122 5.46454 -0.0353175 3.64985 -1.94313
lowerback 11.3419 -0.529785 13.3796
upperback 1.79566 1.20183 5.45368
thorax -4.32621 0.432303 -1.88973
lowerneck -5.21349 -12.549 -10.7002
upperneck 16.0504 -18.4626 13.9633
head 8.13596 -8.47463 4.42825
rclavicle -8.74653e-015 -1.59028e-014
rhumerus -9.67117 -8.52247 -65.4102
rradius 53.9004
rwrist -11.1684
rhand -2.22196 -40.9258
rfingers 7.12502
rthumb 23.4605 -429.515
lclavicle -8.74653e-015 -1.59028e-014
lhumerus -38.9507 -15.8212 102.149
lradius 72.4598
lwrist 18.627
lhand -4.69551 -28.1541
lfingers 7.12502
lthumb 21.0859 0.719459
rfemur 0 0 0
rtibia 0
rfoot 0 0
rtoes 0
lfemur -6.98002 -0.439476 -11.7127
ltibia 23.8028
lfoot -17.8912 5.80037
ltoes -56.9886
878
root -0.679856 18.7108 5.47499 -0.0536732 3.6362 -1.96413
lowerback 11.2374 -0.525002 13.2531
upperback 1.80025 1.171 5.41732
thorax -4.26864 0.422058 -1.85521
lowerneck -5.24671 -12.4886 -10.4411
upperneck 15.8885 -18.3189 13.6552
head 8.01162 -8.42022 4.3104
rclavicle -2.26615e-014 1.11319e-014
rhumerus -10.1582 -8.84644 -65.4994
rradius 53.3668
rwrist -10.7496
rhand -2.19739 -41.1558
rfingers 7.12502
rthumb 23.4841 -429.742
lclavicle -2.26615e-014 1.11319e-014
lhumerus -38.9847 -15.8041 102.128
lradius 72.4293
lwrist 18.7457
lhand -4.73149 -28.0775
lfingers 7.12502
lthumb 21.0514 0.799882
rfemur 0 0 0
rtibia 0
rfoot 0 0
rtoes 0
lfemur -6.92105 -0.44873 -11.6927
ltibia 23.7972
lfoot -17.9293 5.84337
ltoes -57.0284
